<?xml version="1.0" encoding="UTF-8"?>
<svg version="1.1" fill="whitw" xmlns="http://www.w3.org/2000/svg"  width="3945" height="3380">
<path d="M0 0 C1.91187103 0.00031723 1.91187103 0.00031723 3.86236572 0.00064087 C24.85372448 0.03530068 45.26678362 1.13729143 66 4.375 C67.75908691 4.63192627 67.75908691 4.63192627 69.55371094 4.89404297 C103.90777768 9.97251265 137.35313203 19.73720067 170 31.375 C171.19157715 31.79700684 172.3831543 32.21901367 173.61083984 32.65380859 C236.42177806 55.05313028 266.32296886 96.61988003 294.25 155.1875 C295.62526139 158.09350739 296.99551837 161.00181812 298.36376953 163.91113281 C299.90847593 167.18124536 301.46557891 170.44507445 303.02720642 173.7071228 C313.74449487 196.0948924 324.08341081 218.62128265 334 241.375 C334.30854919 242.08190979 334.61709839 242.78881958 334.93499756 243.51715088 C371.79530061 328.00011984 404.83057437 414.8090168 470.23046875 782.46484375 C469.92189803 784.6153966 469.61370092 786.76600308 469.30583191 788.91665649 C464.51826496 822.13939644 459.35693931 855.30907625 454.23935556 888.48218155 C453.664104 892.21222992 453.08952805 895.94238223 452.51493961 899.6725328 C438.85337057 988.35609828 424.67524887 1076.94642824 409.8125 1165.4375 C409.61899586 1166.59011322 409.42549171 1167.74272644 409.22612381 1168.93026733 C405.10292353 1193.48209194 400.91909919 1218.02306402 396.61710167 1242.54424858 C396.21608345 1244.83082253 395.81599719 1247.11756015 395.41687965 1249.40446663 C394.86671733 1252.5533512 394.31234671 1255.70146356 393.7565918 1258.84936523 C393.59289534 1259.78953176 393.42919888 1260.7296983 393.26054192 1261.69835472 C393.10851374 1262.55376665 392.95648556 1263.40917858 392.79985046 1264.29051208 C392.66876735 1265.03542624 392.53768423 1265.7803404 392.4026289 1266.54782772 C392 1268.375 392 1268.375 391 1270.375 C392.25042557 1270.37429809 392.25042557 1270.37429809 393.52611226 1270.37358199 C482.96089089 1270.32348402 572.39567125 1270.27649745 665.93139648 1270.24797058 C667.30249612 1270.24755223 668.67359576 1270.24713387 670.04469539 1270.24671552 C698.82918053 1270.23794604 727.61366581 1270.22979605 756.39815132 1270.22236097 C770.85916281 1270.218625 785.32017427 1270.21477009 799.7811857 1270.21080268 C801.96247268 1270.21020493 804.14375966 1270.20961057 806.32504664 1270.20901636 C839.88397722 1270.19984454 873.44290453 1270.1881335 907.00183105 1270.16900635 C908.08282138 1270.1683903 908.08282138 1270.1683903 909.1856499 1270.16776181 C920.80362871 1270.16112532 932.4216074 1270.15427425 944.03958607 1270.14739468 C977.53359703 1270.12756451 1011.02760546 1270.10934066 1044.5216217 1270.10158062 C1045.21150049 1270.10142001 1045.90137927 1270.10125941 1046.61216348 1270.10109394 C1061.76260984 1270.09759532 1076.91305623 1270.09491137 1092.06350287 1270.09299705 C1098.16103846 1270.09221227 1104.25857404 1270.0913104 1110.35610962 1270.09036827 C1111.02342687 1270.09026799 1111.69074412 1270.09016771 1112.37828311 1270.09006439 C1134.4835878 1270.0866826 1156.58887206 1270.07288017 1178.69416893 1270.0545039 C1200.2654412 1270.03679431 1221.83669496 1270.03010801 1243.40797424 1270.03449587 C1256.20764093 1270.03676931 1269.00723962 1270.03076888 1281.80689397 1270.01260737 C1290.37963217 1270.00127992 1298.95232631 1270.00106314 1307.52506766 1270.00950456 C1312.39521818 1270.01399314 1317.26524097 1270.01400996 1322.13537729 1270.00035045 C1372.71009788 1269.86706388 1421.97633287 1275.71607241 1470 1292.375 C1470.99741211 1292.71901855 1471.99482422 1293.06303711 1473.02246094 1293.41748047 C1525.07210963 1311.58319743 1575.74437368 1343.51436473 1610 1387.375 C1611.4363455 1389.08430414 1612.87388544 1390.79260515 1614.3125 1392.5 C1652.88474153 1439.91171354 1676.81478213 1503.43537302 1677.23828125 1564.73046875 C1677.25297203 1566.4818364 1677.25297203 1566.4818364 1677.26795959 1568.26858521 C1677.58918815 1616.47605545 1677.58918815 1616.47605545 1673 1640.375 C1672.79101074 1641.52419922 1672.58202148 1642.67339844 1672.36669922 1643.85742188 C1658.50920849 1718.96813564 1620.97646584 1789.94847093 1568.73046875 1845.4609375 C1566.27386455 1848.0827211 1563.87959015 1850.74604256 1561.5 1853.4375 C1554.18910763 1861.58582186 1546.47834204 1869.4381747 1538 1876.375 C1538.6192848 1879.97734134 1539.6013899 1883.12451047 1541.00390625 1886.49609375 C1554.41565235 1919.49859741 1563.02951749 1955.20248981 1563.203125 1991 C1563.21371445 1992.46518822 1563.21371445 1992.46518822 1563.22451782 1993.9599762 C1563.4535548 2034.98302091 1563.4535548 2034.98302091 1560 2055.375 C1559.79600586 2056.59848145 1559.59201172 2057.82196289 1559.38183594 2059.08251953 C1546.67338545 2133.36313513 1513.12076423 2201.43439231 1464 2258.375 C1463.36191406 2259.11492188 1462.72382813 2259.85484375 1462.06640625 2260.6171875 C1460.38877431 2262.54665796 1458.69570555 2264.46139787 1457 2266.375 C1456.37424072 2267.0855957 1455.74848145 2267.79619141 1455.10375977 2268.52832031 C1449.60798458 2274.71098753 1443.89132927 2280.63960916 1438.03149414 2286.47387695 C1436.53605986 2287.96384347 1435.04618582 2289.45922643 1433.55664062 2290.95507812 C1432.60188381 2291.90917581 1431.64681774 2292.86296415 1430.69140625 2293.81640625 C1429.83748291 2294.66920166 1428.98355957 2295.52199707 1428.10375977 2296.40063477 C1426 2298.375 1426 2298.375 1424 2299.375 C1424.72683584 2304.4628509 1426.74123416 2309.00657845 1428.625 2313.75 C1438.59724605 2339.49456116 1445.01866724 2365.92920133 1448 2393.375 C1448.09571289 2394.21820801 1448.19142578 2395.06141602 1448.29003906 2395.93017578 C1458.04591207 2494.2407025 1421.58020062 2592.0148021 1361 2668.375 C1360.57493164 2668.91189453 1360.14986328 2669.44878906 1359.71191406 2670.00195312 C1355.11568163 2675.77986088 1350.31703919 2681.34429238 1345.3359375 2686.79296875 C1344.08083747 2688.18029504 1342.83132644 2689.57335176 1341.61938477 2690.99853516 C1336.34262804 2697.17916203 1330.64397633 2702.91715362 1324.90063477 2708.65966797 C1323.16849124 2710.39403314 1321.4445469 2712.13629591 1319.72070312 2713.87890625 C1318.62027978 2714.98225787 1317.51938584 2716.08514039 1316.41796875 2717.1875 C1315.64612495 2717.97012207 1315.64612495 2717.97012207 1314.85868835 2718.76855469 C1311.22886878 2722.375 1311.22886878 2722.375 1309 2722.375 C1309.35191406 2723.29796875 1309.70382813 2724.2209375 1310.06640625 2725.171875 C1311.73330733 2729.56466307 1313.37231642 2733.96754222 1315 2738.375 C1315.28858887 2739.15584961 1315.57717773 2739.93669922 1315.87451172 2740.74121094 C1323.12997037 2760.51995703 1328.65245805 2780.56575373 1332 2801.375 C1332.22647217 2802.69177734 1332.22647217 2802.69177734 1332.45751953 2804.03515625 C1347.96885311 2897.06969204 1316.34278505 2995.55783255 1262.5703125 3071.09619141 C1253.27143775 3084.00290879 1243.53462655 3096.45434027 1233 3108.375 C1231.89978516 3109.62603516 1231.89978516 3109.62603516 1230.77734375 3110.90234375 C1228.54076551 3113.41483632 1226.2766402 3115.89871597 1224 3118.375 C1223.4440918 3118.98134277 1222.88818359 3119.58768555 1222.31542969 3120.21240234 C1215.61189014 3127.50722302 1208.93930908 3134.73125039 1201.453125 3141.23828125 C1199.12576664 3143.26545485 1196.85743108 3145.34699023 1194.59790039 3147.44921875 C1188.59853927 3153.0202585 1182.41390915 3158.28230809 1176 3163.375 C1175.08516846 3164.11459961 1175.08516846 3164.11459961 1174.15185547 3164.86914062 C1133.32314864 3197.85115825 1086.35534958 3222.85081659 1037 3240.375 C1036.07815918 3240.70951172 1035.15631836 3241.04402344 1034.20654297 3241.38867188 C975.97984367 3262.42779619 914.46381795 3268.56411595 852.93656349 3268.50363445 C850.51860738 3268.50498509 848.10065149 3268.50677121 845.68269598 3268.50894669 C840.46029916 3268.5126577 835.23791142 3268.51334854 830.01551409 3268.51124074 C822.19736422 3268.50810276 814.37922333 3268.51080191 806.5610741 3268.51453945 C793.22906035 3268.52074339 779.89704985 3268.52225 766.56503487 3268.52112198 C753.06915114 3268.5199945 739.57327016 3268.5210421 726.07738686 3268.52469444 C725.22248743 3268.5249241 724.36758801 3268.52515375 723.48678254 3268.52539036 C720.00445911 3268.52633208 716.52213569 3268.52728778 713.03981227 3268.52826155 C676.78282454 3268.5383853 640.52583837 3268.54146675 604.26884939 3268.54205366 C600.37105514 3268.54211841 596.47326088 3268.54218635 592.57546663 3268.54225707 C591.60814882 3268.54227408 590.640831 3268.54229108 589.64420053 3268.5423086 C568.17772926 3268.54271762 546.71125828 3268.54490933 525.24478716 3268.54741292 C516.39691361 3268.54844131 507.54904006 3268.54943136 498.70116651 3268.55042917 C497.23462246 3268.55059505 497.23462246 3268.55059505 495.73845127 3268.55076428 C439.74149028 3268.55708493 383.74452949 3268.56121375 327.74756813 3268.56075573 C325.65363264 3268.56073995 323.55969715 3268.56072422 321.46576166 3268.56070852 C312.01245656 3268.56063514 302.55915145 3268.56054697 293.10584635 3268.56045464 C288.89063147 3268.56041351 284.67541658 3268.56037337 280.4602017 3268.56033332 C278.35041631 3268.56031293 276.24063092 3268.56029191 274.13084553 3268.56027026 C207.40884267 3268.55958994 140.68684512 3268.56691021 73.96484375 3268.58081055 C57.15000218 3268.58431173 40.3351606 3268.58778126 23.52031898 3268.59107494 C21.96716059 3268.59137925 21.96716059 3268.59137925 20.38262525 3268.59168971 C-11.54236429 3268.59790692 -43.4673534 3268.60167068 -75.39234352 3268.60293293 C-76.39498622 3268.60297288 -77.39762891 3268.60301283 -78.43065472 3268.60305399 C-100.44333182 3268.60390735 -122.45600889 3268.60416843 -144.468686 3268.60388362 C-152.34548815 3268.60378714 -160.22229031 3268.60373509 -168.09909247 3268.60370489 C-170.05852688 3268.60369697 -172.01796129 3268.60368677 -173.97739571 3268.60367426 C-205.16192281 3268.60349815 -236.34644537 3268.6091874 -267.53097117 3268.61782808 C-298.94495822 3268.62648812 -330.35893898 3268.62866052 -361.77292673 3268.62206676 C-366.12014605 3268.62115455 -370.46736539 3268.62031125 -374.81458473 3268.61950874 C-376.09275006 3268.61926861 -376.09275006 3268.61926861 -377.3967369 3268.61902363 C-390.85133188 3268.61667698 -404.30591593 3268.62101344 -417.76050885 3268.62817993 C-431.01254665 3268.63509712 -444.26456841 3268.63479628 -457.51660587 3268.62698779 C-465.27025529 3268.62263029 -473.02385726 3268.62362034 -480.77750267 3268.63285458 C-486.55918426 3268.63911691 -492.34082142 3268.63475335 -498.12249875 3268.62652128 C-500.42810388 3268.62481762 -502.73371468 3268.62636955 -505.03931399 3268.63182249 C-582.50948665 3268.80258969 -652.21890154 3245.64011606 -718.14160156 3206.08203125 C-720.97649501 3204.38903714 -723.82501646 3202.72189456 -726.6796875 3201.0625 C-738.15579027 3194.37861597 -749.34172308 3187.34636428 -760.4375 3180.05175781 C-775.06544219 3170.48004412 -789.85501344 3161.11118836 -805 3152.375 C-805.61537188 3151.97508032 -806.23074375 3151.57516064 -806.86476326 3151.16312218 C-812.69023212 3147.57566828 -817.1506206 3146.64875943 -823.92602539 3146.71557617 C-825.34714127 3146.69985062 -825.34714127 3146.69985062 -826.79696655 3146.68380737 C-829.89753691 3146.65523438 -832.99697877 3146.66132813 -836.09765625 3146.66796875 C-838.2595712 3146.654843 -840.42147391 3146.63953609 -842.58335876 3146.62214661 C-848.25013736 3146.58238681 -853.91659448 3146.57211192 -859.58349609 3146.56811523 C-865.37542416 3146.55876686 -871.16716467 3146.52134257 -876.95898438 3146.48632812 C-888.30598089 3146.42184397 -899.65283627 3146.38852862 -911 3146.375 C-910.99333817 3147.98421074 -910.99333817 3147.98421074 -910.98654175 3149.62593079 C-910.94570573 3159.81828688 -910.9158781 3170.01062601 -910.89637566 3180.20304585 C-910.8860117 3185.44098171 -910.87199041 3190.67885067 -910.84912109 3195.91674805 C-910.82712552 3200.98721649 -910.8153761 3206.05762125 -910.81024551 3211.12813377 C-910.80659704 3213.04666329 -910.79947536 3214.96518997 -910.78853989 3216.88369179 C-910.70076795 3232.94534754 -911.20892023 3249.15148008 -915.125 3264.8125 C-915.33817871 3265.67536621 -915.55135742 3266.53823242 -915.77099609 3267.42724609 C-921.67517976 3290.15566762 -932.7635749 3310.57903954 -948 3328.375 C-948.79535156 3329.31085937 -949.59070312 3330.24671875 -950.41015625 3331.2109375 C-954.93668615 3336.38189619 -959.66304907 3341.05022942 -965 3345.375 C-965.93328125 3346.14585937 -966.8665625 3346.91671875 -967.828125 3347.7109375 C-976.00354016 3354.32306506 -984.67576817 3359.54531419 -994 3364.375 C-994.61069336 3364.69597656 -995.22138672 3365.01695312 -995.85058594 3365.34765625 C-1003.24425714 3369.187064 -1010.79457382 3372.15385544 -1018.75 3374.625 C-1019.48637695 3374.85920654 -1020.22275391 3375.09341309 -1020.98144531 3375.3347168 C-1035.44408066 3379.58780515 -1050.31242633 3380.82589563 -1065.30874634 3380.75252342 C-1066.96576557 3380.75566324 -1068.62278273 3380.76011464 -1070.27979541 3380.76573652 C-1074.79217955 3380.77730839 -1079.30436847 3380.7704877 -1083.81674907 3380.76040266 C-1088.7414992 3380.75274099 -1093.66622113 3380.76259259 -1098.59096718 3380.77013266 C-1107.20877727 3380.78093432 -1115.82653092 3380.78065964 -1124.44434357 3380.77299118 C-1137.25957936 3380.76161881 -1150.07476776 3380.76745788 -1162.89000326 3380.7766161 C-1185.78127076 3380.79239664 -1208.67251311 3380.79105079 -1231.56378299 3380.78237936 C-1251.59649984 3380.77482818 -1271.62920803 3380.77285978 -1291.66192627 3380.7764473 C-1293.00495877 3380.77667974 -1294.34799128 3380.7769112 -1295.69102378 3380.77714171 C-1301.08851855 3380.77807316 -1306.48601331 3380.77902916 -1311.88350806 3380.780021 C-1326.9704445 3380.78277162 -1342.05738097 3380.78448372 -1357.14431763 3380.78537941 C-1358.17473404 3380.78544082 -1358.17473404 3380.78544082 -1359.22596694 3380.78550346 C-1381.1052257 3380.78673075 -1402.98448126 3380.78335344 -1424.86373901 3380.77683067 C-1425.57306187 3380.77661993 -1426.28238472 3380.77640918 -1427.0132022 3380.77619205 C-1438.53113982 3380.77275746 -1450.04907737 3380.76909895 -1461.56701492 3380.76542152 C-1507.24455524 3380.75085324 -1552.92206917 3380.75152943 -1598.59960938 3380.76611328 C-1610.11182655 3380.76977704 -1621.62404373 3380.77341028 -1633.13626099 3380.77683067 C-1634.19962738 3380.77714769 -1634.19962738 3380.77714769 -1635.28447593 3380.77747111 C-1657.14154517 3380.78394254 -1678.99861221 3380.78668195 -1700.85568237 3380.78537941 C-1701.54211811 3380.78533866 -1702.22855385 3380.7852979 -1702.93579067 3380.78525592 C-1718.00614624 3380.78431836 -1733.07650159 3380.7824172 -1748.14685693 3380.7796479 C-1753.53944003 3380.77866054 -1758.93202313 3380.77772129 -1764.32460624 3380.77679577 C-1765.66606146 3380.7765636 -1767.00751668 3380.77632741 -1768.34897191 3380.77608718 C-1789.03711622 3380.77239246 -1809.72524845 3380.77604909 -1830.41339111 3380.78388596 C-1853.17879287 3380.79246679 -1875.94416559 3380.79031268 -1898.70956373 3380.77404372 C-1911.44540243 3380.7652421 -1924.18117821 3380.76464941 -1936.91701526 3380.77598225 C-1945.42995017 3380.78272101 -1953.94283474 3380.77850173 -1962.4557622 3380.76546794 C-1967.30207601 3380.7583493 -1972.14826502 3380.75585453 -1976.99457479 3380.76668589 C-1981.41407454 3380.77646225 -1985.83334018 3380.77213823 -1990.25282326 3380.75714391 C-1991.8312859 3380.75415294 -1993.40976848 3380.75603889 -1994.98821506 3380.76376172 C-2034.76889437 3380.94439238 -2071.15138503 3365.68622796 -2100 3338.375 C-2100.88429688 3337.55515625 -2101.76859375 3336.7353125 -2102.6796875 3335.890625 C-2120.34879298 3318.97233137 -2133.12911872 3296.7629796 -2140.25 3273.4375 C-2140.48412598 3272.67614746 -2140.71825195 3271.91479492 -2140.95947266 3271.13037109 C-2145.15970033 3256.66894206 -2146.66938388 3242.04219153 -2147.79586792 3227.09492493 C-2147.95669536 3225.04793164 -2148.1182934 3223.00099878 -2148.28057754 3220.95412046 C-2148.63499636 3216.46161924 -2148.98377167 3211.96872619 -2149.32833433 3207.47545838 C-2149.90841343 3199.91125513 -2150.50097344 3192.34805335 -2151.09430313 3184.78487968 C-2151.99613675 3173.27538891 -2152.89098396 3161.76536673 -2153.78229141 3150.25505638 C-2155.16068973 3132.45612759 -2156.55002566 3114.65806249 -2157.94173758 3096.86017031 C-2158.63847328 3087.94996313 -2159.33479596 3079.03972367 -2160.03105736 3070.12947941 C-2160.10265633 3069.21324814 -2160.1742553 3068.29701688 -2160.24802394 3067.35302103 C-2161.39292607 3052.70135314 -2162.53577909 3038.04952612 -2163.67772865 3023.39762783 C-2169.08583648 2954.01258841 -2174.52391973 2884.6299156 -2179.96942443 2815.24780358 C-2180.55856886 2807.74139287 -2181.14767102 2800.23497885 -2181.736769 2792.7285645 C-2182.75806003 2779.71506082 -2183.77936752 2766.70155844 -2184.80069089 2753.6880573 C-2184.86090461 2752.92082513 -2184.92111833 2752.15359296 -2184.98315671 2751.36311133 C-2185.65755597 2742.77005064 -2186.33196891 2734.17699103 -2187.00640902 2725.58393355 C-2190.78452943 2677.44680014 -2194.5609877 2629.3095366 -2198.33587646 2581.17214966 C-2198.39912846 2580.36556109 -2198.46238046 2579.55897252 -2198.52754919 2578.72794188 C-2200.13612037 2558.21543634 -2201.74460429 2537.70292397 -2203.35305466 2517.19040896 C-2204.26176586 2505.60165324 -2205.17049861 2494.01289921 -2206.079247 2482.42414641 C-2206.14370124 2481.60219796 -2206.20815548 2480.78024951 -2206.27456288 2479.93339354 C-2206.60047728 2475.77719332 -2206.92639207 2471.62099313 -2207.25230707 2467.46479297 C-2207.90609247 2459.12745566 -2208.55987539 2450.79011816 -2209.21365762 2442.4527806 C-2209.3109419 2441.21216601 -2209.3109419 2441.21216601 -2209.41019152 2439.9464885 C-2210.3949853 2427.38793329 -2211.37976878 2414.82937728 -2212.36454558 2402.27082074 C-2212.46226841 2401.02459164 -2212.46226841 2401.02459164 -2212.56196544 2399.7531862 C-2212.82543601 2396.39322703 -2213.08890656 2393.03326786 -2213.35237709 2389.67330869 C-2216.68751738 2347.14128929 -2220.02275976 2304.6092779 -2223.35806689 2262.07727159 C-2223.55900952 2259.51484066 -2223.75995205 2256.95240972 -2223.96089456 2254.38997877 C-2226.99611828 2215.68463204 -2230.03139102 2176.97928915 -2233.06675529 2138.27395344 C-2233.19585567 2136.62773409 -2233.32495604 2134.98151473 -2233.45405641 2133.33529538 C-2234.60386927 2118.67349597 -2235.75368411 2104.01169671 -2236.90350913 2089.34989826 C-2237.6571816 2079.73957083 -2238.41085129 2070.12924318 -2239.16451645 2060.51891518 C-2239.25707001 2059.33872265 -2239.25707001 2059.33872265 -2239.35149334 2058.13468785 C-2241.3751963 2032.32950461 -2243.39872286 2006.52430755 -2245.42215234 1980.71910287 C-2246.7128334 1964.25878747 -2248.00353349 1947.79847356 -2249.29434943 1931.33816874 C-2249.35081134 1930.61817432 -2249.40727325 1929.89817989 -2249.46544613 1929.15636746 C-2250.0267398 1921.998841 -2250.58804049 1914.84131509 -2251.14935034 1907.6837899 C-2251.42338906 1904.189392 -2251.69742617 1900.69499397 -2251.97146225 1897.20059586 C-2252.02514626 1896.51603931 -2252.07883027 1895.83148277 -2252.13414108 1895.12618208 C-2253.01994378 1883.83073628 -2253.90563352 1872.53528163 -2254.79116531 1861.23981458 C-2255.28168571 1854.98313612 -2255.77235089 1848.72646908 -2256.26335381 1842.46982846 C-2257.09515372 1831.86946628 -2257.92638792 1821.26906391 -2258.75244087 1810.66825211 C-2259.18268797 1805.14738823 -2259.61373555 1799.62658711 -2260.0452919 1794.10582542 C-2260.12814535 1793.04578369 -2260.21099881 1791.98574196 -2260.29636297 1790.89357776 C-2261.3734035 1777.13369083 -2262.48983002 1763.37769058 -2263.64801337 1749.62440297 C-2264.08483846 1744.4204774 -2264.51418354 1739.21592784 -2264.94366755 1734.01139189 C-2265.26610447 1730.11557783 -2265.5938673 1726.22041687 -2265.937557 1722.32641586 C-2267.38775864 1705.87650933 -2268.22936673 1689.54048953 -2268.25489998 1673.02134991 C-2268.25781166 1672.21798757 -2268.26072334 1671.41462523 -2268.26372325 1670.58691858 C-2268.28757724 1658.17126478 -2267.4457561 1646.35647611 -2264 1634.375 C-2263.78569336 1633.60397949 -2263.57138672 1632.83295898 -2263.35058594 1632.03857422 C-2256.74562756 1608.85392046 -2244.38094319 1587.96527457 -2228 1570.375 C-2227.50741699 1569.84390625 -2227.01483398 1569.3128125 -2226.50732422 1568.765625 C-2208.61472017 1549.68647743 -2185.91124308 1535.63069991 -2160.875 1528 C-2159.76886353 1527.6604126 -2159.76886353 1527.6604126 -2158.64038086 1527.31396484 C-2144.13776922 1523.16769138 -2129.97942338 1521.93277685 -2114.97794056 1521.99468327 C-2113.10927639 1521.9912425 -2111.24061426 1521.98649085 -2109.37195632 1521.9805623 C-2104.26259743 1521.96811987 -2099.15340675 1521.97417222 -2094.0440473 1521.98339598 C-2088.47558681 1521.99012951 -2082.90715443 1521.97942777 -2077.3387 1521.97100013 C-2067.58749909 1521.95864512 -2057.83634631 1521.95741578 -2048.08514023 1521.96355057 C-2034.26373171 1521.97222275 -2020.44235899 1521.96567146 -2006.62095469 1521.95485291 C-1979.28819653 1521.93348119 -1951.95546069 1521.93139331 -1924.62269627 1521.93690995 C-1920.84911251 1521.93766571 -1917.07552874 1521.93839332 -1913.30194497 1521.93909192 C-1912.17757321 1521.93930056 -1912.17757321 1521.93930056 -1911.03048687 1521.93951341 C-1894.40176761 1521.94246857 -1877.77305102 1521.93945006 -1861.14433224 1521.93519563 C-1858.8669494 1521.93461348 -1856.58956656 1521.93404463 -1854.31218371 1521.93348 C-1848.20690467 1521.93196498 -1842.10162563 1521.93043807 -1835.99634659 1521.92888699 C-1793.38785728 1521.9181337 -1750.77937044 1521.91342484 -1708.17088032 1521.92135715 C-1706.96669295 1521.92157961 -1706.96669295 1521.92157961 -1705.73817857 1521.92180657 C-1696.78667489 1521.92346549 -1687.83517122 1521.92521508 -1678.88366757 1521.92699958 C-1677.67143843 1521.92724111 -1677.67143843 1521.92724111 -1676.43471982 1521.92748753 C-1669.87743963 1521.92879501 -1669.87743963 1521.92879501 -1666.63004993 1521.92944872 C-1614.94321378 1521.93983891 -1563.25641168 1521.93207483 -1511.56958008 1521.90844727 C-1498.54599927 1521.90250359 -1485.52241844 1521.89661192 -1472.49883747 1521.89103794 C-1471.2958787 1521.89052229 -1471.2958787 1521.89052229 -1470.06861773 1521.88999621 C-1445.34130611 1521.87946438 -1420.61399733 1521.87387469 -1395.88668346 1521.8734808 C-1395.11006645 1521.87346801 -1394.33344944 1521.87345523 -1393.53329858 1521.87344206 C-1376.48269619 1521.87321374 -1359.43209405 1521.87422013 -1342.3814918 1521.87635112 C-1336.28015777 1521.87710584 -1330.17882374 1521.87778406 -1324.0774897 1521.87843127 C-1322.5597086 1521.87859396 -1321.04192749 1521.87876163 -1319.52414639 1521.87893428 C-1295.36791747 1521.88165233 -1271.21170926 1521.87311461 -1247.0554848 1521.85908018 C-1222.04116736 1521.84465378 -1197.02688922 1521.8451464 -1172.0125731 1521.8624549 C-1157.59991925 1521.87212037 -1143.18735073 1521.87058725 -1128.77470178 1521.85322021 C-1119.14014583 1521.84272315 -1109.50566663 1521.84684186 -1099.87111822 1521.86270025 C-1094.38658966 1521.87132312 -1088.9022586 1521.8737784 -1083.41774026 1521.85843093 C-1049.66947567 1521.77060211 -1020.14614727 1523.95032069 -990 1540.375 C-988.94167969 1540.94089844 -987.88335938 1541.50679687 -986.79296875 1542.08984375 C-963.02709669 1555.32771482 -945.91296337 1575.03390659 -931 1597.375 C-904.43947532 1579.73252073 -878.11432814 1561.81833671 -852.32226562 1543.06347656 C-850.75426613 1541.92341301 -849.18522928 1540.78477502 -847.61523438 1539.64746094 C-837.05833418 1531.99263979 -826.76453626 1524.11055504 -816.72363281 1515.79003906 C-815.18316327 1514.5253703 -813.62030935 1513.2880819 -812.0546875 1512.0546875 C-801.32110823 1503.57422108 -791.67182199 1493.85827203 -783.19140625 1483.12890625 C-781.22127521 1480.65307312 -779.19032841 1478.24400641 -777.12475586 1475.84765625 C-770.05385258 1467.63028969 -763.51811861 1459.03312523 -757 1450.375 C-755.76565709 1448.74216324 -754.53128135 1447.1093513 -753.296875 1445.4765625 C-745.5987576 1435.2723354 -738.0427664 1424.97481524 -730.59277344 1414.58837891 C-728.98870416 1412.35930287 -727.37485937 1410.1376448 -725.7578125 1407.91796875 C-719.6311646 1399.49899389 -713.6443455 1391.0023409 -707.79150391 1382.390625 C-704.37380146 1377.36585564 -700.90010411 1372.38734888 -697.375 1367.4375 C-689.73652194 1356.67442048 -682.36984492 1345.72565128 -674.98339844 1334.7890625 C-672.83580452 1331.61007865 -670.68486335 1328.43338371 -668.53222656 1325.2578125 C-649.85557166 1297.78671921 -649.85557166 1297.78671921 -631.84375 1269.87890625 C-628.95843577 1265.27920155 -625.962643 1260.75863128 -622.9375 1256.25 C-611.72548389 1239.53450787 -600.90073165 1222.56834661 -590.06591797 1205.60693359 C-587.99550171 1202.36796285 -585.92209404 1199.13092761 -583.84765625 1195.89453125 C-576.3309352 1184.1660927 -568.84590315 1172.41898291 -561.42236328 1160.63134766 C-559.99102682 1158.36076551 -558.55657956 1156.09217961 -557.12109375 1153.82421875 C-544.62786645 1134.08245398 -532.26749415 1114.25775575 -520 1094.375 C-519.37480469 1093.36179687 -518.74960938 1092.34859375 -518.10546875 1091.3046875 C-508.68273362 1076.02759031 -499.31547714 1060.71770416 -490 1045.375 C-488.64843864 1043.14973889 -487.29687609 1040.9244785 -485.9453125 1038.69921875 C-483.80527096 1035.17569655 -481.66569323 1031.65189477 -479.52758789 1028.12719727 C-475.93826783 1022.21063852 -472.3440755 1016.2971601 -468.73828125 1010.390625 C-459.65358536 995.4994911 -450.75306477 980.51021763 -441.96269226 965.44360352 C-438.76778163 959.97026788 -435.54277368 954.51501166 -432.3125 949.0625 C-420.39257225 928.92014921 -408.6633173 908.66682181 -397 888.375 C-396.02111816 886.6727124 -396.02111816 886.6727124 -395.02246094 884.93603516 C-381.73849258 861.82406378 -368.74552882 838.55870104 -356.09375 815.09375 C-354.13229181 811.45870933 -352.15510934 807.83335398 -350.15625 804.21875 C-341.45909781 788.47025828 -333.24656678 772.47978279 -325.08007812 756.45166016 C-323.2877919 752.93500829 -321.48107358 749.42595324 -319.671875 745.91796875 C-311.39133878 729.74650493 -303.95285854 713.15931169 -297 696.375 C-296.48016541 695.28412079 -295.96033081 694.19324158 -295.42474365 693.06930542 C-293.12597889 686.85271464 -293.65855632 680.33159767 -293.76879883 673.80126953 C-293.78250428 672.33777934 -293.7950496 670.8742779 -293.80652332 669.41076851 C-293.84193168 665.5178981 -293.89813201 661.62563098 -293.96175814 657.73312855 C-293.99915204 655.4272882 -294.03304602 653.12142293 -294.06588364 650.81551361 C-294.21846146 640.2923659 -294.42454683 629.77054985 -294.64351344 619.24860096 C-294.72028648 615.53585033 -294.79469812 611.82305361 -294.86916882 608.1102562 C-295.07196441 598.00236287 -295.27973618 587.89457741 -295.48980242 577.78683281 C-295.64485146 570.32250054 -295.7979313 562.85812984 -295.95007324 555.39373779 C-296.96733487 505.54032548 -298.06266858 455.68931097 -299.29156709 405.84064436 C-299.37870606 402.30499749 -299.4656331 398.76934546 -299.55251122 395.23369217 C-300.05644927 374.73530388 -300.56169866 354.23695029 -301.09091187 333.73919678 C-303.19455805 252.2390979 -303.19455805 252.2390979 -303.31363678 223.97517014 C-303.32303118 221.77753672 -303.33675725 219.57991589 -303.35561371 217.38234329 C-303.66239701 176.68549649 -289.72966113 137.74919457 -261.5078125 108.03515625 C-259.4821004 105.88638687 -257.57303243 103.70677144 -255.6875 101.4375 C-246.86021789 91.30714291 -236.31790638 82.71585736 -225.64208984 74.62304688 C-224.10271874 73.4530699 -222.57624969 72.26617195 -221.05078125 71.078125 C-192.27014302 48.93313187 -159.24201482 32.18698818 -125 20.375 C-123.62231445 19.89788574 -123.62231445 19.89788574 -122.21679688 19.41113281 C-102.7606381 12.75654241 -82.95221895 8.06157144 -62.6875 4.625 C-61.52154297 4.42632324 -60.35558594 4.22764648 -59.15429688 4.02294922 C-39.42312941 0.82663156 -19.97235869 -0.0306429 0 0 Z M-98 174.375 C-98.97598145 174.84244629 -98.97598145 174.84244629 -99.97167969 175.31933594 C-116.41407648 183.32452139 -132.08885638 194.39233692 -145 207.375 C-145.8515416 208.08898956 -146.70308319 208.80297913 -147.58042908 209.53860474 C-151.83312642 214.75455993 -150.55252477 222.08542379 -150.38793945 228.44140625 C-150.36517024 230.03183871 -150.3444173 231.62230108 -150.32548237 233.21278381 C-150.26468263 237.64922749 -150.16890471 242.0843134 -150.06506395 246.51993561 C-149.99912289 249.41348832 -149.94105046 252.30709811 -149.8854332 255.2008667 C-149.60643192 269.66376013 -149.2542984 284.12443044 -148.88699269 298.58531499 C-148.72562866 304.98191551 -148.56976156 311.37865005 -148.41343689 317.77537537 C-148.16366475 327.97643897 -147.91195824 338.1774522 -147.65831438 348.37842026 C-146.95314116 376.74290719 -146.26812879 405.10788415 -145.58624518 433.47293934 C-145.53510475 435.59979795 -145.48392434 437.72665559 -145.43273449 439.853513 C-144.27943344 487.78004577 -143.18821209 535.70743812 -142.263969 583.63899958 C-142.1580381 589.12876139 -142.04950048 594.61846687 -141.93978882 600.1081543 C-141.59083641 617.63350692 -141.2802868 635.15873409 -141.04933167 652.68611908 C-141.01610951 655.17037665 -140.98140234 657.65461475 -140.94529724 660.13883209 C-140.8393072 667.43816943 -140.75530375 674.73708189 -140.70635605 682.03703499 C-140.68897569 684.23535676 -140.66500062 686.43363935 -140.63345718 688.63180351 C-140.3978255 705.79501554 -142.8202677 720.52926511 -148.75 736.6875 C-149.31364258 738.23268311 -149.31364258 738.23268311 -149.88867188 739.80908203 C-160.10161924 767.0821127 -173.10967114 793.32909456 -186.0222168 819.4005127 C-186.96602262 821.30638774 -187.90804254 823.21313521 -188.84960938 825.12011719 C-195.25299477 838.07258099 -201.76883307 850.9582278 -208.57470703 863.70410156 C-210.21995571 866.78718148 -211.85763606 869.87424349 -213.49609375 872.9609375 C-219.89422366 884.99311989 -226.39827525 896.95071851 -233.15332031 908.78759766 C-237.23742222 915.96537553 -241.16910168 923.21726177 -245.0625 930.5 C-250.65205351 940.94241014 -256.427782 951.2564741 -262.3515625 961.51220703 C-264.51721578 965.27323345 -266.66499291 969.04435035 -268.81329346 972.81530762 C-276.55832806 986.40870992 -284.38561994 999.95171723 -292.29101562 1013.45263672 C-294.00530869 1016.38407786 -295.71444197 1019.31846481 -297.421875 1022.25390625 C-305.13506525 1035.51153329 -312.9217466 1048.72410112 -320.75630188 1061.91035461 C-323.02875763 1065.73606059 -325.29599539 1069.56481564 -327.5602417 1073.39538574 C-335.4306805 1086.70962668 -343.31288773 1100.00782507 -351.50073242 1113.13037109 C-355.06308762 1118.84221712 -358.55043078 1124.59439746 -362 1130.375 C-367.08792467 1138.89458698 -372.28707815 1147.34055233 -377.5234375 1155.76953125 C-380.64773338 1160.80013159 -383.75038963 1165.84381449 -386.84960938 1170.88989258 C-398.61441505 1190.04457318 -410.53528922 1209.09948724 -422.55712891 1228.09375 C-424.01248433 1230.39473833 -425.46559118 1232.69713105 -426.91796875 1235 C-434.57895308 1247.14608241 -442.2791934 1259.26686579 -450 1271.375 C-450.94383545 1272.85661621 -450.94383545 1272.85661621 -451.90673828 1274.36816406 C-461.75121908 1289.81718827 -471.71454503 1305.18463095 -481.76831055 1320.49816895 C-483.06959027 1322.48104068 -484.36987219 1324.46456379 -485.66992188 1326.44824219 C-502.96192252 1352.83218847 -520.3918381 1379.1179875 -538.0625 1405.25 C-538.76717407 1406.29234299 -538.76717407 1406.29234299 -539.48608398 1407.35574341 C-548.87593507 1421.23949194 -558.36118134 1435.05666014 -567.9375 1448.8125 C-568.6178833 1449.78985107 -569.2982666 1450.76720215 -569.99926758 1451.77416992 C-579.19271727 1464.9689026 -588.48507413 1478.08474609 -597.91796875 1491.109375 C-600.21093287 1494.27762933 -602.48773618 1497.45669958 -604.75268555 1500.64501953 C-615.51619257 1515.79333047 -626.64192533 1530.66843634 -638 1545.375 C-638.85078125 1546.47908203 -638.85078125 1546.47908203 -639.71875 1547.60546875 C-653.97552642 1566.09472567 -668.48971948 1584.4155866 -684.3828125 1601.53515625 C-686.79787809 1604.15568265 -689.1508094 1606.8205851 -691.5 1609.5 C-699.27759109 1618.13106126 -708.12127638 1625.38184899 -717.28125 1632.46875 C-720.47366923 1634.94574336 -723.60004473 1637.49486256 -726.7175293 1640.06518555 C-736.20758107 1647.88045312 -746.0461406 1655.1643623 -756 1662.375 C-757.53648542 1663.49215025 -759.07294417 1664.60933718 -760.609375 1665.7265625 C-774.56375657 1675.85428171 -788.66832682 1685.76471966 -802.8125 1695.625 C-804.20795044 1696.5991687 -804.20795044 1696.5991687 -805.6315918 1697.59301758 C-812.36269444 1702.27689434 -819.16857519 1706.8391262 -826 1711.375 C-828.52843431 1713.06217113 -831.05513244 1714.75193657 -833.58203125 1716.44140625 C-851.90496882 1728.68343175 -870.25490358 1740.8754693 -888.82421875 1752.7421875 C-889.3981839 1753.10903656 -889.97214905 1753.47588562 -890.56350708 1753.85385132 C-893.35093127 1755.63467694 -896.140082 1757.41266613 -898.93164062 1759.18701172 C-900.4253418 1760.13858154 -900.4253418 1760.13858154 -901.94921875 1761.109375 C-902.82924561 1761.66850586 -903.70927246 1762.22763672 -904.6159668 1762.80371094 C-905.79606323 1763.58149902 -905.79606323 1763.58149902 -907 1764.375 C-907.69892431 1764.73258688 -908.39784862 1765.09017376 -909.11795245 1765.45859661 C-911.53629863 1767.9210885 -911.4837868 1769.82079334 -911.52720462 1773.18232552 C-911.51716911 1773.98304341 -911.5071336 1774.7837613 -911.49679399 1775.60874337 C-911.5044625 1776.8915466 -911.5044625 1776.8915466 -911.51228594 1778.20026505 C-911.52464363 1781.09748398 -911.50822359 1783.99384855 -911.49219131 1786.89103985 C-911.49514722 1788.98539413 -911.49985873 1791.07974656 -911.50617731 1793.1740934 C-911.51852107 1798.97525057 -911.50569748 1804.77612993 -911.48906477 1810.57726653 C-911.47538552 1816.87093502 -911.48480011 1823.16457394 -911.49137473 1829.45824796 C-911.49969038 1840.50382635 -911.49318988 1851.5493052 -911.4768219 1862.59487152 C-911.45933036 1874.45075457 -911.45052913 1886.30659641 -911.45243073 1898.16249275 C-911.45254549 1898.9103663 -911.45266026 1899.65823984 -911.45277851 1900.42877623 C-911.45340398 1904.24195532 -911.45417178 1908.05513437 -911.45498985 1911.86831342 C-911.46062501 1939.49302213 -911.44687865 1967.11769414 -911.42292023 1994.74239159 C-911.39924441 2022.10652027 -911.38382269 2049.47063325 -911.37950897 2076.83477211 C-911.37937132 2077.68405012 -911.37923368 2078.53332814 -911.37909186 2079.40834185 C-911.37783909 2087.16498985 -911.37668833 2094.92163786 -911.37565996 2102.67828589 C-911.37310211 2121.96194535 -911.36926465 2141.24560444 -911.36455917 2160.5292635 C-911.3643459 2161.40747724 -911.36413263 2162.28569099 -911.3639129 2163.19051728 C-911.35342241 2205.92869387 -911.32819037 2248.66686009 -911.30175781 2291.4050293 C-911.29259132 2306.23935946 -911.28348993 2321.07368965 -911.2746582 2335.90802002 C-911.27411041 2336.82802485 -911.27356261 2337.74802968 -911.27299821 2338.69591344 C-911.24763005 2381.45070427 -911.23272217 2424.20549689 -911.22051902 2466.96029327 C-911.21972677 2469.73537297 -911.21893 2472.51045268 -911.21813231 2475.28553238 C-911.21285326 2493.67586178 -911.20775465 2512.06619123 -911.20277687 2530.45652072 C-911.19287041 2567.04988526 -911.18190366 2603.64324946 -911.17020868 2640.23661348 C-911.16965172 2641.97935342 -911.1690955 2643.72209336 -911.16854003 2645.4648333 C-911.14352213 2723.93644023 -911.10616863 2802.40803953 -911.06347656 2880.87963867 C-911.06307682 2881.61454178 -911.06267708 2882.34944488 -911.06226522 2883.10661778 C-911.04226267 2919.86274561 -911.02155653 2956.61887304 -911 2993.375 C-910.41176201 2993.37738835 -909.82352402 2993.37977671 -909.21746063 2993.38223743 C-894.83295547 2993.44165155 -880.44860226 2993.51736728 -866.06427765 2993.61071491 C-859.10780869 2993.65547548 -852.15138869 2993.69493419 -845.19482422 2993.72143555 C-838.47086645 2993.74706626 -831.74715806 2993.78810124 -825.02333069 2993.83818626 C-822.4687831 2993.85476371 -819.91419754 2993.86633438 -817.35960388 2993.87261391 C-770.69960237 2993.99882463 -734.38379587 3014.63662421 -695.92138672 3039.48925781 C-687.59442927 3044.86427196 -679.23541977 3050.18973883 -670.88476562 3055.52783203 C-668.28977898 3057.18944924 -665.69909762 3058.85754124 -663.109375 3060.52734375 C-650.00632697 3068.93788623 -636.55898251 3076.72524482 -623 3084.375 C-622.20883789 3084.82504395 -621.41767578 3085.27508789 -620.60253906 3085.73876953 C-585.33779289 3105.6875683 -548.34951755 3116.05831371 -507.90992641 3115.87557125 C-505.46450848 3115.87945048 -503.01909281 3115.88508096 -500.5736824 3115.89228085 C-495.28475342 3115.90388113 -489.99604285 3115.90331453 -484.70712995 3115.89156907 C-476.78937827 3115.87406265 -468.87175588 3115.8800006 -460.95399746 3115.89018357 C-447.45299905 3115.90687676 -433.95206339 3115.90477196 -420.45106316 3115.89219666 C-406.78178286 3115.87953503 -393.11254137 3115.87564603 -379.44325638 3115.88231087 C-378.14497708 3115.88293518 -378.14497708 3115.88293518 -376.82046991 3115.88357211 C-373.29494189 3115.88529696 -369.76941391 3115.88708483 -366.24388597 3115.8889523 C-333.45464906 3115.90631519 -300.66544076 3115.90418141 -267.87620354 3115.88961601 C-236.27581399 3115.87559699 -204.67543738 3115.8685747 -173.07504463 3115.87132454 C-171.08855691 3115.87148742 -169.10206918 3115.87164946 -167.11558145 3115.87181065 C-159.13217542 3115.87246899 -151.1487694 3115.87317275 -143.16536337 3115.87393599 C-120.84922065 3115.87604744 -98.53307798 3115.87680012 -76.21693516 3115.8765192 C-75.20077532 3115.87650682 -74.18461549 3115.87649444 -73.13766293 3115.87648169 C-40.76728726 3115.87599243 -8.39691559 3115.86957031 23.97345829 3115.85896206 C25.54786034 3115.8584469 25.54786034 3115.8584469 27.15406848 3115.85792134 C44.19769106 3115.85232307 61.24131352 3115.84638866 78.28493597 3115.84043228 C145.85947872 3115.81683815 213.4339989 3115.8106352 281.00854492 3115.82104492 C285.27790032 3115.82169813 289.54725572 3115.82234945 293.81661112 3115.82300042 C294.87220703 3115.82316146 295.92780294 3115.82332249 297.0153866 3115.82348841 C308.70657 3115.82526799 320.3977534 3115.82699014 332.08893681 3115.82864285 C333.13743597 3115.82879221 334.18593514 3115.82894158 335.26620701 3115.82909547 C390.91889395 3115.8369605 446.57157888 3115.83133892 502.22426511 3115.82052955 C510.20264009 3115.81898043 518.18101508 3115.81746705 526.15939007 3115.81595473 C529.1348129 3115.81538649 532.11023573 3115.814805 535.08565855 3115.81422299 C556.82445536 3115.81002581 578.56324991 3115.80782054 600.30204701 3115.81090808 C601.76933365 3115.81111599 601.76933365 3115.81111599 603.26626244 3115.81132811 C608.19077081 3115.81203845 613.11527918 3115.81278466 618.03978754 3115.81354547 C653.68299699 3115.81904306 689.32618267 3115.81486793 724.96938694 3115.79355692 C728.48740759 3115.79149479 732.00542825 3115.78947803 735.52344894 3115.78749657 C736.38678887 3115.78700562 737.25012879 3115.78651467 738.13963053 3115.78600885 C751.76419939 3115.77852424 765.38874705 3115.78099198 779.01331555 3115.78767041 C792.4372971 3115.79403313 805.86123983 3115.78953753 819.28521401 3115.77379211 C826.4545671 3115.76566741 833.62384372 3115.76209978 840.79319621 3115.77236467 C929.17919421 3115.89091055 1013.02071507 3100.34007121 1083 3042.375 C1083.58668457 3041.8912793 1084.17336914 3041.40755859 1084.77783203 3040.90917969 C1099.10708709 3029.01362961 1112.53837239 3016.07528391 1124 3001.375 C1124.67417969 3000.59125 1125.34835937 2999.8075 1126.04296875 2999 C1152.37725337 2968.30065181 1170.13711932 2929.59989766 1179 2890.375 C1179.27118652 2889.2005835 1179.27118652 2889.2005835 1179.54785156 2888.00244141 C1188.37508304 2847.87626889 1181.37813362 2803.06177624 1159.33178711 2768.43652344 C1155.34471204 2762.35353066 1151.03078033 2756.80589444 1146.0078125 2751.5234375 C1144 2749.375 1144 2749.375 1141.95703125 2746.80078125 C1139.02245093 2743.16330744 1135.59690523 2740.34157939 1132 2737.375 C1131.09507813 2736.62089844 1130.19015625 2735.86679688 1129.2578125 2735.08984375 C1088.58740964 2702.43968573 1036.67498097 2693.97546801 986 2692.375 C986.61593018 2692.36041748 987.23186035 2692.34583496 987.86645508 2692.33081055 C1058.46886026 2690.49217241 1128.047219 2671.29487384 1185 2628.375 C1185.62583984 2627.90465332 1186.25167969 2627.43430664 1186.89648438 2626.94970703 C1194.09267429 2621.50368766 1200.92739395 2615.78939566 1207.54296875 2609.6484375 C1209.72099653 2607.63315584 1211.93609286 2605.68227564 1214.1875 2603.75 C1221.01690818 2597.79865859 1227.14267243 2591.27309238 1233 2584.375 C1233.72703125 2583.53710938 1234.4540625 2582.69921875 1235.203125 2581.8359375 C1274.19145119 2536.18186522 1301.34611864 2475.87769412 1296.6875 2414.87890625 C1293.12272445 2375.35788495 1275.97773215 2338.64006299 1245.22558594 2312.88916016 C1207.09011399 2282.47824682 1159.70679011 2272.07076685 1112 2269.375 C1113.50675293 2269.23251831 1113.50675293 2269.23251831 1115.04394531 2269.0871582 C1186.01433286 2262.3058225 1252.84625386 2243.3888084 1309 2197.375 C1309.76449463 2196.75262451 1309.76449463 2196.75262451 1310.54443359 2196.11767578 C1321.73019291 2186.97629321 1333.1894529 2177.39400152 1342.4296875 2166.25 C1343.54053874 2164.92361046 1344.69689892 2163.63472563 1345.8828125 2162.375 C1386.33507246 2119.3851444 1412.30692278 2058.51633021 1411.25 1999.25 C1410.03083246 1962.43114037 1397.0681983 1928.41619789 1372 1901.375 C1371.16597656 1900.47007813 1370.33195312 1899.56515625 1369.47265625 1898.6328125 C1332.08941082 1859.73484886 1275.7050067 1848.06678711 1224 1845.375 C1225.26384521 1845.27795776 1225.26384521 1845.27795776 1226.55322266 1845.17895508 C1273.26421706 1841.49955626 1318.51281859 1832.89627158 1361 1812.375 C1362.07797852 1811.85873047 1362.07797852 1811.85873047 1363.17773438 1811.33203125 C1394.93796015 1796.05199636 1422.48516832 1775.53388543 1448 1751.375 C1449.12728516 1750.31152344 1449.12728516 1750.31152344 1450.27734375 1749.2265625 C1454.78424724 1744.85352743 1458.75681679 1740.14978952 1462.67578125 1735.24609375 C1464.15715831 1733.41615739 1465.67257393 1731.6129066 1467.23046875 1729.84765625 C1505.54440855 1686.14281035 1527.94635412 1626.5035378 1525 1568.375 C1521.96666226 1531.22436667 1506.43487854 1495.06617444 1478.3203125 1469.984375 C1475.5932999 1467.71315204 1472.82081404 1465.52835381 1470 1463.375 C1469.12601563 1462.69695312 1468.25203125 1462.01890625 1467.3515625 1461.3203125 C1426.83083275 1430.78122879 1375.03506895 1422.17696396 1325.47352791 1422.25195217 C1323.51302283 1422.25121139 1321.55251788 1422.25003159 1319.5920133 1422.24845567 C1314.21386111 1422.24539853 1308.83572793 1422.24855187 1303.45757716 1422.25273381 C1297.60323848 1422.25617744 1291.74890167 1422.25379541 1285.8945626 1422.25215632 C1275.63742427 1422.25008486 1265.3802913 1422.25168962 1255.12315369 1422.25579453 C1244.12171746 1422.26017786 1233.12028402 1422.2623665 1222.11884689 1422.26189232 C1221.42311265 1422.26186363 1220.7273784 1422.26183493 1220.01056129 1422.26180537 C1216.46279876 1422.26164899 1212.91503623 1422.26145704 1209.36727371 1422.26125254 C1183.71032378 1422.25984626 1158.05337632 1422.26327164 1132.39642715 1422.26926994 C1106.99236158 1422.27519492 1081.58829707 1422.27904554 1056.1842308 1422.28012276 C1055.00025367 1422.28017437 1055.00025367 1422.28017437 1053.79235781 1422.28022704 C1046.58302007 1422.28054024 1039.37368233 1422.28082793 1032.16434458 1422.28108501 C1014.24374311 1422.28172436 996.32314166 1422.28268365 978.40254021 1422.28386021 C977.58652807 1422.28391352 976.77051594 1422.28396684 975.92977616 1422.28402177 C936.2476173 1422.2866425 896.56545914 1422.29294974 856.88330078 1422.29956055 C843.11486817 1422.30185223 829.34643556 1422.30412761 815.57800293 1422.30633545 C814.72406877 1422.3064724 813.87013462 1422.30660935 812.99032367 1422.30675045 C773.28366954 1422.31309601 733.57701528 1422.3168206 693.87036078 1422.31987024 C691.29217377 1422.32006831 688.71398676 1422.3202675 686.13579975 1422.32046692 C669.04983851 1422.32178672 651.96387728 1422.32306137 634.87791604 1422.32430578 C600.88188517 1422.3267822 566.88585433 1422.32952388 532.8898235 1422.33244783 C531.27089008 1422.33258707 529.65195666 1422.33272612 528.03302324 1422.33286499 C455.16410499 1422.33911706 382.29518726 1422.34845469 309.42626953 1422.35913086 C308.40292203 1422.35928076 308.40292203 1422.35928076 307.35890083 1422.35943369 C273.23926719 1422.36443402 239.11963358 1422.36961051 205 1422.375 C205.25764224 1421.29356185 205.51528448 1420.2121237 205.78073406 1419.0979147 C206.75124944 1415.02252435 207.71985414 1410.94668176 208.68793011 1406.87071133 C209.10437251 1405.11846832 209.52130885 1403.36634261 209.93878078 1401.6143446 C213.31687691 1387.43529079 216.45813874 1373.23231971 219.3125 1358.9375 C219.77382256 1356.64607308 220.23516779 1354.35465072 220.6965332 1352.06323242 C222.14655898 1344.83686988 223.57603405 1337.60653719 225 1330.375 C225.34774475 1328.61240845 225.34774475 1328.61240845 225.70251465 1326.81420898 C242.46732979 1241.73387027 256.66112635 1156.15153623 314.86328125 786.07421875 C314.96728249 785.37981383 315.07128373 784.6854089 315.17843652 783.9699614 C315.85826253 779.43018034 316.53737194 774.89029249 317.21606445 770.3503418 C317.38367783 769.22989912 317.5512912 768.10945644 317.72398376 766.95506096 C318.02348552 764.9496585 318.32213886 762.94412904 318.61969185 760.93843651 C318.85319908 759.36449976 319.08844783 757.79081872 319.32664299 756.21758461 C319.96254646 751.94430111 320.17362016 747.7528521 320.15625 743.4375 C320.15379272 742.69733643 320.15133545 741.95717285 320.14880371 741.19458008 C320.06945017 733.54001573 319.38648734 725.97256418 318.5 718.375 C318.41519379 717.63010315 318.33038757 716.8852063 318.24301147 716.11773682 C306.75748573 616.27491304 278.09404746 518.27837782 239 413.375 C238.44956024 411.91830902 238.44956024 411.91830902 237.88800049 410.43218994 C214.61468773 348.94290541 188.53136758 288.6839292 159.94140625 229.484375 C157.38386599 224.18630765 154.86633801 218.87001661 152.35473633 213.55004883 C150.8466664 210.38422402 149.30622397 207.23609743 147.7578125 204.08984375 C146.05283547 200.62183079 144.48071067 197.15728143 143.0546875 193.56640625 C139.7962567 185.89757417 136.33616668 181.90049436 128.58959961 178.54223633 C124.54711821 177.00339319 120.46444464 175.66527767 116.32861328 174.40039062 C112.91152922 173.34774628 109.53397663 172.20804098 106.15234375 171.046875 C39.3669018 148.4088488 -33.06707293 143.18437992 -98 174.375 Z M-2116 1675.375 C-2115.18651919 1692.77883825 -2115.18651919 1692.77883825 -2113.99704456 1710.14576626 C-2113.90063221 1711.38107082 -2113.80421985 1712.61637539 -2113.7048859 1713.88911342 C-2113.44111412 1717.26049437 -2113.17450705 1720.6316274 -2112.90660153 1724.00268075 C-2112.61330176 1727.70264161 -2112.32384079 1731.40290331 -2112.03385651 1735.10312521 C-2111.52507884 1741.58856203 -2111.01391929 1748.0738076 -2110.50115669 1754.55893052 C-2109.73468215 1764.25301782 -2108.9719918 1773.94740038 -2108.21002015 1783.64184253 C-2106.91445702 1800.12371581 -2105.61585164 1816.6053481 -2104.3155632 1833.08684921 C-2103.00446429 1849.70554571 -2101.69479816 1866.3243542 -2100.38689041 1882.94330215 C-2100.26317856 1884.51523391 -2100.26317856 1884.51523391 -2100.13696748 1886.11892187 C-2099.71674531 1891.45852008 -2099.29654708 1896.79812018 -2098.87635761 1902.13772097 C-2095.85135178 1940.57770919 -2092.82325855 1979.01745368 -2089.79342651 2017.45706177 C-2086.81012312 2055.30646641 -2083.82795386 2093.15596009 -2080.84744263 2131.00558472 C-2080.70891884 2132.76469339 -2080.70891884 2132.76469339 -2080.56759659 2134.55933962 C-2079.53813978 2147.63239356 -2078.50871832 2160.70545028 -2077.47931635 2173.77850854 C-2075.68574029 2196.55631477 -2073.89204575 2219.33411166 -2072.09830257 2242.11190472 C-2071.9085381 2244.52162434 -2071.71877416 2246.931344 -2071.52901075 2249.3410637 C-2068.7534197 2284.58701999 -2065.9771941 2319.83292624 -2063.20042815 2355.07878999 C-2054.22796041 2468.96754507 -2045.26295023 2582.85688209 -2035.56760269 2706.20302695 C-2033.3954989 2733.83729652 -2031.22299754 2761.47153481 -2029.05010282 2789.1057422 C-2028.81478913 2792.09839218 -2028.57947712 2795.09104229 -2028.34416559 2798.08369244 C-2026.9576629 2815.71697224 -2025.57113468 2833.35025002 -2024.1845454 2850.98352301 C-2023.28400465 2862.43571942 -2022.38348984 2873.88791786 -2021.48300171 2885.34011841 C-2021.40942104 2886.27589512 -2021.33584038 2887.21167184 -2021.26002999 2888.17580542 C-2018.89602356 2918.24065113 -2016.533452 2948.3056094 -2014.17155074 2978.37062055 C-2011.81154281 3008.41140506 -2009.44988404 3038.45205933 -2007.08594554 3068.49253481 C-2006.76156871 3072.61465969 -2006.43721111 3076.73678609 -2006.11286545 3080.85891342 C-2006.0493476 3081.66615738 -2005.98582976 3082.47340135 -2005.92038713 3083.30510725 C-2004.9168339 3096.05983497 -2003.91506676 3108.81470232 -2002.91406684 3121.56963065 C-2001.93641563 3134.02661232 -2000.95693107 3146.48344865 -1999.97543972 3158.94012835 C-1999.45184428 3165.58604486 -1998.92915108 3172.23203008 -1998.40872347 3178.87819564 C-1997.93688335 3184.90367849 -1997.46266492 3190.92896908 -1996.98648284 3196.95411031 C-1996.81529539 3199.12559541 -1996.6450009 3201.29715113 -1996.47567607 3203.46878226 C-1996.24687099 3206.40164614 -1996.01486496 3209.33423955 -1995.78202724 3212.26678562 C-1995.71688495 3213.11178591 -1995.65174266 3213.95678619 -1995.58462637 3214.82739254 C-1995.4905158 3216.00013396 -1995.4905158 3216.00013396 -1995.39450401 3217.19656712 C-1995.34204318 3217.86393529 -1995.28958235 3218.53130346 -1995.2355318 3219.2188949 C-1994.93693029 3221.95235269 -1994.45205101 3224.66269393 -1994 3227.375 C-1687.1 3227.375 -1380.2 3227.375 -1064 3227.375 C-1064 2715.215 -1064 2203.055 -1064 1675.375 C-1411.16 1675.375 -1758.32 1675.375 -2116 1675.375 Z " fill="#1A1818" transform="translate(2268,-0.375)"/>
</svg>
